<?xml version="1.0" standalone="no"?><svg xmlns="http://www.w3.org/2000/svg" viewBox="0 0 1440 320"><path fill="#E3D9F5" fill-opacity="1" d="M0,128L24,133.3C48,139,96,149,144,154.7C192,160,240,160,288,144C336,128,384,96,432,90.7C480,85,528,107,576,112C624,117,672,107,720,96C768,85,816,75,864,74.7C912,75,960,85,1008,96C1056,107,1104,117,1152,128C1200,139,1248,149,1296,133.3C1344,117,1392,75,1416,53.3L1440,32L1440,320L1416,320C1392,320,1344,320,1296,320C1248,320,1200,320,1152,320C1104,320,1056,320,1008,320C960,320,912,320,864,320C816,320,768,320,720,320C672,320,624,320,576,320C528,320,480,320,432,320C384,320,336,320,288,320C240,320,192,320,144,320C96,320,48,320,24,320L0,320Z"></path></svg>